<?xml version="1.0" encoding="utf-8"?>
<!-- Generator: Adobe Illustrator 22.0.1, SVG Export Plug-In . SVG Version: 6.00 Build 0)  -->
<svg version="1.1" id="Camada_1" xmlns="http://www.w3.org/2000/svg" xmlns:xlink="http://www.w3.org/1999/xlink" x="0px" y="0px"
	 viewBox="0 0 594.8 809.4" style="enable-background:new 0 0 594.8 809.4;" xml:space="preserve">
<style type="text/css">
	.st0{fill:#EE3233;}
</style>
<g>
	<path class="st0" d="M37,149.8C8.7,291,70.9,319.2,104.8,341.8c57.4,38.2,141.2-33.9,141.2-33.9l45.2,33.9l45.2-33.9
		c0,0,83.8,72.1,141.2,33.9c33.9-22.6,96-50.8,67.8-192l-48.9,27.2c9.4,12,15,27,15,43.4c0,39-31.6,70.6-70.6,70.6
		c-30.5,0-56.3-19.3-66.2-46.3L291.1,291l-83.4-46.3c-9.9,27-35.8,46.3-66.2,46.3c-39,0-70.6-31.6-70.6-70.6
		c0-16.4,5.6-31.4,15-43.4L37,149.8z"/>
	<path class="st0" d="M171.8,224.7l-56.6-31.5c-6.4,6.2-10.4,14.8-10.4,24.4c0,18.7,15.2,33.9,33.9,33.9
		C154.9,251.4,168.5,240,171.8,224.7z"/>
	<path class="st0" d="M477.5,217.5c0-9.6-4-18.2-10.4-24.4l-56.6,31.5c3.3,15.3,16.8,26.8,33.1,26.8
		C462.3,251.4,477.5,236.3,477.5,217.5z"/>
	<polygon class="st0" points="556.5,104.6 556.5,48.1 291.1,211.9 25.7,48.1 25.7,104.6 291.1,257.1 	"/>
	<path class="st0" d="M347.6,353.1l-56.5,28.2l-56.5-28.2C133,426.5,20,324.8,20,324.8V771l271.1-169.4L562.2,771V324.8
		C562.2,324.8,449.2,426.5,347.6,353.1z"/>
</g>
</svg>
